<svg version="1.1" id="Layer_1" xmlns="http://www.w3.org/2000/svg" xmlns:xlink="http://www.w3.org/1999/xlink" x="0px" y="0px"
	 width="100%" viewBox="0 0 1024 1024" enable-background="new 0 0 1024 1024" xml:space="preserve">
<path fill="#000000" opacity="1.000000" stroke="none" 
	d="
M445.000000,1025.000000 
	C296.666656,1025.000000 148.833328,1025.000000 1.000000,1025.000000 
	C1.000000,683.666687 1.000000,342.333344 1.000000,1.000000 
	C342.333344,1.000000 683.666687,1.000000 1025.000000,1.000000 
	C1025.000000,342.333344 1025.000000,683.666687 1025.000000,1025.000000 
	C831.833313,1025.000000 638.666687,1025.000000 445.000000,1025.000000 
M422.500000,731.933899 
	C506.313477,731.923584 590.127563,732.049377 673.939392,731.673096 
	C681.550659,731.638977 689.909790,729.836853 696.605713,726.337646 
	C715.501221,716.463379 724.319275,699.708252 724.928772,678.606384 
	C725.185852,669.705139 724.996643,660.790833 724.998962,651.882507 
	C725.001648,641.878845 724.986633,631.875183 724.987610,621.871521 
	C724.992432,574.239624 725.072144,526.607666 724.978577,478.975983 
	C724.926086,452.256439 724.723694,425.535248 724.294373,398.819550 
	C724.170959,391.134644 724.515625,382.952972 722.083801,375.879852 
	C712.059021,346.721954 690.265564,338.620239 664.709290,339.661438 
	C658.903503,339.898010 653.090393,340.032166 647.281006,340.024384 
	C646.355225,340.023163 644.664856,339.069946 644.626343,338.473206 
	C644.302551,333.445496 644.534119,328.376526 644.102600,323.362671 
	C643.599243,317.513885 643.604553,311.330994 641.597473,305.962982 
	C637.535400,295.099091 618.512207,287.888031 608.622803,293.755249 
	C600.087891,298.818878 593.851440,306.398346 594.057129,317.426636 
	C594.162781,323.089935 594.003052,328.757996 594.089844,334.421967 
	C594.154724,338.652802 592.746643,340.302979 588.013916,340.273468 
	C552.023743,340.048950 516.031433,340.164520 480.039795,340.165131 
	C477.663422,340.165192 475.287079,340.059113 472.910675,340.056641 
	C461.464691,340.044617 450.018707,340.051208 437.983917,340.051208 
	C437.983917,337.246094 438.071625,334.957550 437.967560,332.677734 
	C437.651184,325.746002 437.534393,318.789551 436.826813,311.895355 
	C436.020630,304.040588 426.339569,294.177917 417.292389,292.842194 
	C405.690643,291.129364 396.625458,294.465454 390.863129,304.157104 
	C387.917908,309.110718 386.942627,315.517029 386.182190,321.409424 
	C385.414246,327.359650 386.012970,333.486267 386.012970,340.065491 
	C378.738708,340.065491 371.615143,339.933899 364.498871,340.104797 
	C358.184082,340.256439 351.637604,339.770477 345.609558,341.255371 
	C322.256866,347.007935 307.445099,365.688416 307.304962,387.545929 
	C306.687500,483.852966 307.097198,580.166382 307.005066,676.477356 
	C306.996429,685.509094 308.217834,694.109253 312.083496,702.309692 
	C320.243622,719.620056 336.247650,731.497375 356.016449,731.833496 
	C377.838562,732.204529 399.671692,731.928650 422.500000,731.933899 
z"/>
<path fill="#0064B0" opacity="1.000000" stroke="none" 
	d="
M422.000000,731.934204 
	C399.671692,731.928650 377.838562,732.204529 356.016449,731.833496 
	C336.247650,731.497375 320.243622,719.620056 312.083496,702.309692 
	C308.217834,694.109253 306.996429,685.509094 307.005066,676.477356 
	C307.097198,580.166382 306.687500,483.852966 307.304962,387.545929 
	C307.445099,365.688416 322.256866,347.007935 345.609558,341.255371 
	C351.637604,339.770477 358.184082,340.256439 364.498871,340.104797 
	C371.615143,339.933899 378.738708,340.065491 386.012970,340.065491 
	C386.012970,333.486267 385.414246,327.359650 386.182190,321.409424 
	C386.942627,315.517029 387.917908,309.110718 390.863129,304.157104 
	C396.625458,294.465454 405.690643,291.129364 417.292389,292.842194 
	C426.339569,294.177917 436.020630,304.040588 436.826813,311.895355 
	C437.534393,318.789551 437.651184,325.746002 437.967560,332.677734 
	C438.071625,334.957550 437.983917,337.246094 437.983917,340.051208 
	C450.018707,340.051208 461.464691,340.044617 472.910675,340.056641 
	C475.287079,340.059113 477.663422,340.165192 480.039795,340.165131 
	C516.031433,340.164520 552.023743,340.048950 588.013916,340.273468 
	C592.746643,340.302979 594.154724,338.652802 594.089844,334.421967 
	C594.003052,328.757996 594.162781,323.089935 594.057129,317.426636 
	C593.851440,306.398346 600.087891,298.818878 608.622803,293.755249 
	C618.512207,287.888031 637.535400,295.099091 641.597473,305.962982 
	C643.604553,311.330994 643.599243,317.513885 644.102600,323.362671 
	C644.534119,328.376526 644.302551,333.445496 644.626343,338.473206 
	C644.664856,339.069946 646.355225,340.023163 647.281006,340.024384 
	C653.090393,340.032166 658.903503,339.898010 664.709290,339.661438 
	C690.265564,338.620239 712.059021,346.721954 722.083801,375.879852 
	C724.515625,382.952972 724.170959,391.134644 724.294373,398.819550 
	C724.723694,425.535248 724.926086,452.256439 724.978577,478.975983 
	C725.072144,526.607666 724.992432,574.239624 724.987610,621.871521 
	C724.986633,631.875183 725.001648,641.878845 724.998962,651.882507 
	C724.996643,660.790833 725.185852,669.705139 724.928772,678.606384 
	C724.319275,699.708252 715.501221,716.463379 696.605713,726.337646 
	C689.909790,729.836853 681.550659,731.638977 673.939392,731.673096 
	C590.127563,732.049377 506.313477,731.923584 422.000000,731.934204 
M611.498047,442.904663 
	C604.841980,449.559631 598.186279,456.214905 591.529907,462.869537 
	C555.351807,499.038177 519.175049,535.208130 482.993439,571.373169 
	C478.436829,575.927673 474.440796,575.939270 469.898285,571.398438 
	C454.584290,556.090271 438.980865,541.055786 424.089203,525.346924 
	C415.150513,515.917725 402.973022,513.242493 391.913300,521.922668 
	C386.890747,525.864624 382.280365,530.244934 380.369904,536.385437 
	C377.953003,544.153625 380.840363,550.690308 386.558960,556.189392 
	C397.934448,567.128113 409.351868,578.025940 420.572327,589.122314 
	C435.498413,603.883362 450.147461,618.925293 465.125122,633.633118 
	C472.793121,641.162964 484.521790,641.882874 491.597961,634.834229 
	C544.720703,581.918152 597.763977,528.921692 650.604309,475.724152 
	C653.446777,472.862488 654.993530,468.120850 655.841309,463.987274 
	C657.981995,453.549927 650.158936,447.971344 643.571594,442.408173 
	C638.553650,438.170319 632.733826,435.264526 625.413757,435.832764 
	C619.761108,436.271545 616.251099,439.777130 611.498047,442.904663 
z"/>
<path fill="#000000" opacity="1.000000" stroke="none" 
	d="
M611.760010,442.656921 
	C616.251099,439.777130 619.761108,436.271545 625.413757,435.832764 
	C632.733826,435.264526 638.553650,438.170319 643.571594,442.408173 
	C650.158936,447.971344 657.981995,453.549927 655.841309,463.987274 
	C654.993530,468.120850 653.446777,472.862488 650.604309,475.724152 
	C597.763977,528.921692 544.720703,581.918152 491.597961,634.834229 
	C484.521790,641.882874 472.793121,641.162964 465.125122,633.633118 
	C450.147461,618.925293 435.498413,603.883362 420.572327,589.122314 
	C409.351868,578.025940 397.934448,567.128113 386.558960,556.189392 
	C380.840363,550.690308 377.953003,544.153625 380.369904,536.385437 
	C382.280365,530.244934 386.890747,525.864624 391.913300,521.922668 
	C402.973022,513.242493 415.150513,515.917725 424.089203,525.346924 
	C438.980865,541.055786 454.584290,556.090271 469.898285,571.398438 
	C474.440796,575.939270 478.436829,575.927673 482.993439,571.373169 
	C519.175049,535.208130 555.351807,499.038177 591.529907,462.869537 
	C598.186279,456.214905 604.841980,449.559631 611.760010,442.656921 
z"/>
</svg>